<svg width="420" height="520" viewBox="0 0 420 520" fill="none" xmlns="http://www.w3.org/2000/svg">
  <rect width="420" height="520" rx="36" fill="#0B0F1A"/>
  <circle cx="310" cy="90" r="90" fill="#FFB86B" fill-opacity="0.25"/>
  <circle cx="90" cy="420" r="110" fill="#54D6FF" fill-opacity="0.25"/>
  <rect x="36" y="36" width="348" height="448" rx="28" fill="url(#g)" stroke="rgba(255,255,255,0.08)"/>
  <path d="M210 140c-44 0-80 36-80 80 0 34 22 64 54 76-28 18-46 50-46 86v26h144v-26c0-36-18-68-46-86 32-12 54-42 54-76 0-44-36-80-80-80z" fill="#E2E8F0" fill-opacity="0.9"/>
  <rect x="138" y="250" width="144" height="36" rx="18" fill="#0B0F1A" fill-opacity="0.5"/>
  <defs>
    <linearGradient id="g" x1="36" y1="36" x2="384" y2="484" gradientUnits="userSpaceOnUse">
      <stop stop-color="#1C2A4A"/>
      <stop offset="1" stop-color="#111827"/>
    </linearGradient>
  </defs>
</svg>
